<svg width="559" height="94" viewBox="0 0 559 94" fill="none" xmlns="http://www.w3.org/2000/svg">
<path d="M0.516602 31.566C0.516602 14.545 27.9935 0.686558 61.7716 0.686558C95.5497 0.686558 122.399 14.2358 122.999 31.0037V62.6562C122.399 45.8883 95.1593 32.339 61.7716 32.339C28.3839 32.339 0.516602 46.1975 0.516602 63.2184V31.566Z" fill="#F74F25"/>
<path d="M116.877 43.331C117.881 42.1503 118.732 40.9275 119.429 39.6626V71.315C118.732 72.5659 117.881 73.7887 116.877 74.9834V43.331Z" fill="#F74F25"/>
<path d="M108.542 50.3737C110.117 49.3758 111.567 48.3357 112.891 47.2534V78.8918C111.567 79.9741 110.117 81.0282 108.542 82.0121V50.3596" fill="#F74F25"/>
<path d="M96.8311 56.0088C98.8664 55.2639 100.818 54.4487 102.644 53.5913V85.2297C100.804 86.1011 98.8664 86.9023 96.8311 87.6472V55.9948" fill="#F74F25"/>
<path d="M82.4443 59.8879C84.8561 59.4381 87.1841 58.9181 89.4286 58.3277V89.9661C87.1841 90.5564 84.8421 91.0905 82.4443 91.5262V59.8738" fill="#F74F25"/>
<path d="M49.001 61.0544C51.5521 61.3355 54.159 61.5323 56.8077 61.6447V93.2831C54.1451 93.1706 51.5382 92.9739 49.001 92.6928V61.0403" fill="#F74F25"/>
<path d="M66.0518 61.6612C68.7144 61.5628 71.3352 61.3801 73.8864 61.113V92.7654C71.3352 93.0325 68.7144 93.2152 66.0518 93.3136V61.6612Z" fill="#F74F25"/>
<path d="M33.541 58.1729C35.7715 58.7773 38.0996 59.3114 40.4974 59.7752V91.4136C38.0996 90.9498 35.7855 90.4157 33.541 89.8113V58.1589" fill="#F74F25"/>
<path d="M20.4229 53.3661C22.2491 54.2375 24.1729 55.0667 26.1943 55.8257V87.4641C24.1729 86.7051 22.2351 85.8899 20.4229 85.0044V53.352" fill="#F74F25"/>
<path d="M10.3169 46.9712C11.6134 48.0675 13.0493 49.1216 14.5967 50.1195V81.772C13.0493 80.774 11.6134 79.7199 10.3169 78.6236V46.9712Z" fill="#F74F25"/>
<path d="M3.93164 39.3538C4.60079 40.6188 5.42328 41.8416 6.39913 43.0363V74.6887C5.42328 73.494 4.60079 72.2712 3.93164 71.0062V39.3538Z" fill="#F74F25"/>
<path d="M207.818 67.9619V41.8797C207.818 35.5037 206.199 30.7017 202.961 27.5136C199.723 24.3256 194.767 22.7316 188.094 22.7316H183.197V29.9844H187.778C191.924 29.9844 194.925 30.9607 196.801 32.9134C198.676 34.8661 199.604 37.8947 199.604 42.0192V44.4501L183.256 47.2197C177.057 48.2758 172.358 50.1288 169.12 52.7589C165.882 55.3891 164.263 59.0752 164.263 63.8374C164.263 68.5995 165.901 72.3455 169.159 75.0752C172.417 77.805 176.84 79.1798 182.407 79.1798C187.106 79.1798 191.114 78.1836 194.372 76.191C197.097 74.5372 198.893 72.1661 200.137 69.3766C200.137 71.13 200.197 72.724 200.276 73.9594C200.374 75.5136 200.572 76.9083 200.848 78.1039H208.983C208.627 76.2508 208.351 74.4974 208.134 72.8436C207.916 71.1699 207.818 69.5559 207.818 68.0018V67.9619ZM195.103 68.6593C192.102 70.8112 188.252 71.9071 183.552 71.9071C179.9 71.9071 177.136 71.2097 175.28 69.7751C173.404 68.3604 172.476 66.2483 172.476 63.4986C172.476 60.749 173.503 58.4974 175.536 57.003C177.57 55.5086 180.571 54.4526 184.5 53.815L199.585 51.4439V60.211C199.585 63.678 198.084 66.5074 195.103 68.6792V68.6593Z" fill="#2B1818"/>
<path d="M253.802 53.1776C253.802 56.7841 253.052 60.012 251.532 62.8214C250.011 65.611 247.958 67.8027 245.352 69.3569C242.746 70.931 239.764 71.7081 236.388 71.7081C232.656 71.7081 229.794 70.672 227.799 68.6197C225.786 66.5674 224.798 63.479 224.798 59.3544V23.7878H216.368V61.5861C216.368 65.073 217.138 68.1415 218.678 70.7915C220.218 73.4416 222.37 75.5138 225.114 76.9684C227.859 78.4229 230.978 79.1601 234.512 79.1601C239.093 79.1601 243.239 77.9846 246.951 75.6334C250.209 73.5811 252.578 70.7716 254.335 67.4042V78.0842H262.252V23.7878H253.822V53.1776H253.802Z" fill="#2B1818"/>
<path d="M311.906 33.3314C310.564 30.6415 308.905 28.2505 306.536 26.5568C303.081 24.0662 298.836 22.8308 293.762 22.8308C288.688 22.8308 284.541 24.0064 280.889 26.3377C277.236 28.6689 274.373 31.9765 272.34 36.2405C270.306 40.4846 269.279 45.4659 269.279 51.1446C269.279 56.8233 270.286 61.6452 272.28 65.8295C274.275 70.0138 277.098 73.2816 280.711 75.6128C284.324 77.964 288.569 79.1396 293.426 79.1396C298.283 79.1396 302.587 77.9441 306.141 75.5132C309.024 73.5605 310.998 70.8706 312.42 67.7822V78.0636H320.337V4.97778H311.906V33.3314ZM307.74 66.1085C304.68 69.8345 300.435 71.6876 295.025 71.6876C289.616 71.6876 285.489 69.8544 282.468 66.2081C279.447 62.5618 277.927 57.5207 277.927 51.1446C277.927 44.7685 279.447 39.5083 282.468 35.8221C285.489 32.1359 289.675 30.2829 295.025 30.2829C300.376 30.2829 304.581 32.1359 307.681 35.8221C310.781 39.5083 312.321 44.5095 312.321 50.8258C312.321 57.1421 310.801 62.3825 307.74 66.1085Z" fill="#2B1818"/>
<path d="M338.599 23.7878H330.168V78.0842H338.599V23.7878Z" fill="#2B1818"/>
<path d="M386.415 26.02C382.723 23.8282 378.379 22.7124 373.384 22.7124C368.389 22.7124 363.571 23.888 359.563 26.2392C355.555 28.5704 352.436 31.8581 350.224 36.0823C348.013 40.3064 346.907 45.1881 346.907 50.7273C346.907 56.2665 348.033 61.1682 350.283 65.4122C352.534 69.6563 355.634 73.0237 359.563 75.4745C363.492 77.9253 368.033 79.1408 373.167 79.1408C378.655 79.1408 383.453 77.7061 387.56 74.817C391.667 71.9477 394.608 68.0225 396.366 63.0611H388.35C387.165 65.9104 385.25 68.0822 382.663 69.6165C380.077 71.1507 377.036 71.9079 373.601 71.9079C368.112 71.9079 363.729 69.9751 360.471 66.1096C357.707 62.8419 356.187 58.5978 355.752 53.477H397.649C397.787 52.6999 397.886 51.9826 397.906 51.345C397.945 50.7074 397.965 50.0299 397.965 49.3126C397.965 43.9328 396.958 39.2304 394.964 35.2653C392.95 31.3002 390.107 28.2118 386.415 26.0001V26.02ZM360.452 35.5443C363.729 31.8182 368.033 29.9652 373.384 29.9652C378.734 29.9652 382.604 31.7186 385.467 35.2255C387.698 37.9951 389.041 41.7211 389.515 46.3438H355.851C356.444 42.0001 357.964 38.3737 360.471 35.5443H360.452Z" fill="#2B1818"/>
<path d="M433.286 22.7108C428.508 22.7108 424.224 23.8864 420.472 26.2376C417.175 28.2899 414.746 31.1193 412.93 34.5066V23.7868H405.013V78.0831H413.443V48.7133C413.443 45.0271 414.194 41.7992 415.714 39.0097C417.234 36.2401 419.327 34.0882 422.032 32.5141C424.737 30.94 427.856 30.1629 431.371 30.1629C435.379 30.1629 438.4 31.199 440.453 33.2513C442.487 35.3036 443.513 38.392 443.513 42.5166V78.0632H451.944V40.265C451.944 35.0246 450.246 30.7606 446.83 27.5328C443.415 24.3049 438.893 22.6909 433.266 22.6909L433.286 22.7108Z" fill="#2B1818"/>
<path d="M486.317 47.8369L477.886 45.5056C474.648 44.5891 472.358 43.4533 470.976 42.0984C469.613 40.7435 468.922 39.1495 468.922 37.3163C468.922 34.9054 469.87 33.0324 471.765 31.7373C473.661 30.4222 476.346 29.7647 479.781 29.7647C483.217 29.7647 486.257 30.5418 488.429 32.1158C490.601 33.67 491.944 35.9016 492.437 38.8307H500.572C500.078 33.7896 498.005 29.8643 494.352 27.015C490.7 24.1657 485.941 22.751 480.117 22.751C474.293 22.751 469.534 24.1258 466.079 26.8556C462.624 29.5853 460.906 33.3114 460.906 37.9739C460.906 41.66 462.13 44.8481 464.598 47.4982C467.066 50.1482 470.758 52.1407 475.675 53.416L484.322 55.6476C487.916 56.5841 490.305 57.7198 491.489 59.1146C492.694 60.4894 493.286 62.1034 493.286 63.9564C493.286 66.5866 492.24 68.599 490.127 70.0137C488.015 71.4284 485.092 72.1457 481.361 72.1457C477.136 72.1457 473.759 71.2291 471.232 69.3761C468.705 67.523 467.185 64.873 466.691 61.406H458.557C459.109 67.0847 461.38 71.4682 465.309 74.5567C469.258 77.6451 474.529 79.1992 481.144 79.1992C487.758 79.1992 492.437 77.8643 496.011 75.2142C499.584 72.5641 501.381 68.8381 501.381 64.0959C501.381 60.1905 500.118 56.8431 497.59 54.0934C495.063 51.3238 491.292 49.2715 486.297 47.9166L486.317 47.8369Z" fill="#2B1818"/>
<path d="M555.28 35.2852C553.266 31.3201 550.423 28.2317 546.731 26.02C543.039 23.8083 538.695 22.7124 533.7 22.7124C528.705 22.7124 523.887 23.888 519.879 26.2392C515.871 28.5704 512.752 31.8581 510.541 36.0823C508.329 40.3064 507.224 45.1881 507.224 50.7273C507.224 56.2665 508.349 61.1682 510.6 65.4122C512.851 69.6563 515.95 73.0237 519.879 75.4745C523.808 77.9253 528.35 79.1408 533.483 79.1408H537.925V71.9278H533.917C528.429 71.9079 524.045 69.9751 520.788 66.1096C518.024 62.8419 516.503 58.5978 516.069 53.477H557.965C558.104 52.6999 558.202 51.9826 558.222 51.345C558.262 50.7074 558.281 50.0299 558.281 49.3126C558.281 43.9328 557.274 39.2304 555.28 35.2653V35.2852ZM520.788 35.5443C524.065 31.8182 528.369 29.9652 533.72 29.9652C539.071 29.9652 542.94 31.7186 545.803 35.2255C548.034 37.9951 549.377 41.7211 549.851 46.3438H516.187C516.78 42.0001 518.3 38.3737 520.807 35.5443H520.788Z" fill="#2B1818"/>
</svg>
